<svg xmlns="http://www.w3.org/2000/svg" height="28" viewBox="0 0 163 28"><g fill="none" fill-rule="evenodd"><path d="M 64.3 7.8 c 0.2 0.2 0.3 0.5 0.3 0.9 V 25.3 c 0 0.4 -0.1 0.7 -0.4 1 c -0.2 0.3 -0.6 0.4 -0.9 0.4 c -0.2 0 -0.4 0 -0.6 -0.1 c -0.2 -0.1 -0.3 -0.2 -0.5 -0.3 l -10.8 -14 v 13.2 c 0 0.3 -0.1 0.6 -0.3 0.9 c -0.2 0.2 -0.5 0.4 -0.9 0.3 c -0.3 0 -0.6 -0.1 -0.8 -0.3 c -0.2 -0.2 -0.3 -0.5 -0.3 -0.9 V 8.8 c 0 -0.4 0.1 -0.7 0.4 -0.9 c 0.2 -0.2 0.6 -0.4 0.9 -0.4 c 0.2 0 0.4 0 0.6 0.1 c 0.2 0.1 0.3 0.2 0.5 0.3 l 10.7 14 V 8.7 c 0 -0.3 0.1 -0.6 0.3 -0.9 c 0.2 -0.2 0.5 -0.4 0.9 -0.3 c 0.3 0 0.6 0.1 0.8 0.3 z M 86.4 7.8 c 0.2 0.3 0.4 0.6 0.3 0.9 V 19.2 c 0 1.4 -0.3 2.7 -1 3.9 c -0.6 1.1 -1.5 2.1 -2.6 2.7 c -1.2 0.7 -2.5 1 -3.8 1 c -1.3 0 -2.7 -0.3 -3.8 -1 c -1.1 -0.6 -2 -1.6 -2.7 -2.7 c -0.6 -1.2 -1 -2.5 -1 -3.9 V 8.8 c 0 -0.4 0.1 -0.7 0.4 -0.9 c 0.3 -0.3 0.6 -0.4 1 -0.4 c 0.3 0 0.7 0.1 0.9 0.4 c 0.3 0.2 0.4 0.6 0.4 0.9 V 19.2 c 0 0.9 0.2 1.8 0.7 2.6 c 0.8 1.5 2.4 2.4 4.1 2.4 c 0.9 0 1.7 -0.2 2.4 -0.6 c 0.7 -0.4 1.4 -1 1.8 -1.8 c 0.5 -0.8 0.7 -1.7 0.7 -2.6 V 8.7 c 0 -0.3 0.1 -0.7 0.3 -0.9 c 0.2 -0.3 0.6 -0.4 0.9 -0.4 c 0.3 0 0.7 0.1 0.9 0.4 z M 107.4 24.6 c 0.2 0.2 0.3 0.5 0.2 0.8 c 0 0.4 -0.1 0.7 -0.4 0.9 c -0.2 0.2 -0.6 0.4 -0.9 0.4 c -0.4 0 -0.8 -0.2 -1.1 -0.5 l -5.3 -7.1 l -5.2 7.1 c -0.2 0.4 -0.6 0.6 -1.1 0.6 c -0.3 0 -0.6 -0.1 -0.8 -0.3 c -0.2 -0.2 -0.3 -0.5 -0.3 -0.8 c 0 -0.3 0.1 -0.6 0.3 -0.9 L 98.5 17 l -5.6 -7.6 c -0.2 -0.2 -0.3 -0.5 -0.3 -0.8 c 0 -0.4 0.1 -0.7 0.4 -0.9 c 0.2 -0.2 0.6 -0.4 0.9 -0.4 c 0.2 0 0.4 0 0.6 0.1 c 0.2 0.1 0.4 0.2 0.5 0.4 L 100.2 15 l 5.2 -7 c 0.2 -0.4 0.6 -0.6 1 -0.6 c 0.3 0 0.6 0.1 0.9 0.4 c 0.2 0.2 0.4 0.5 0.4 0.8 c 0 0.3 -0.1 0.6 -0.3 0.8 L 101.7 17 l 5.7 7.6 z M 127.2 7.8 c 0.3 0.2 0.4 0.6 0.4 0.9 c 0 0.3 -0.1 0.7 -0.4 0.9 c -0.3 0.2 -0.6 0.3 -0.9 0.3 h -4.9 v 15.3 c 0 0.4 -0.1 0.7 -0.4 0.9 c -0.6 0.5 -1.4 0.5 -2 0 c -0.3 -0.2 -0.4 -0.6 -0.4 -0.9 V 9.9 h -4.9 c -0.3 0 -0.7 -0.1 -0.9 -0.3 c -0.3 -0.2 -0.4 -0.6 -0.4 -0.9 c 0 -0.3 0.1 -0.7 0.4 -0.9 c 0.3 -0.2 0.6 -0.4 0.9 -0.3 h 12.5 c 0.3 0 0.7 0.1 0.9 0.3 z" class="fill-current"/><path fill="#00c58e" d="M 133.2 26.1 c -0.9 -0.5 -1.6 -1.2 -2.1 -2.1 c -0.2 -0.2 -0.2 -0.5 -0.2 -0.7 c 0 -0.3 0.2 -0.7 0.4 -0.9 c 0.2 -0.2 0.5 -0.4 0.8 -0.4 c 0.5 0 0.9 0.3 1.2 0.7 c 0.6 1 1.7 1.6 2.9 1.6 c 0.9 0 1.9 -0.3 2.5 -1 c 0.7 -0.6 1.1 -1.5 1 -2.5 V 8.8 c 0 -0.4 0.1 -0.7 0.4 -0.9 c 0.3 -0.3 0.6 -0.4 1 -0.4 c 0.4 0 0.7 0.1 1 0.4 c 0.2 0.2 0.4 0.6 0.4 0.9 v 12 c 0 1.1 -0.3 2.1 -0.8 3.1 c -0.5 0.9 -1.3 1.7 -2.3 2.2 c -1 0.6 -2.1 0.8 -3.2 0.8 c -1 0 -2.1 -0.3 -3 -0.8 z M 152 26.3 c -1.1 -0.4 -2.1 -1 -2.9 -1.8 c -0.4 -0.3 -0.6 -0.7 -0.6 -1.1 c 0 -0.3 0.1 -0.7 0.4 -0.9 c 0.2 -0.3 0.6 -0.4 0.9 -0.4 c 0.3 0 0.6 0.1 0.8 0.3 c 0.7 0.6 1.4 1.1 2.3 1.5 c 0.8 0.3 1.7 0.5 2.6 0.5 c 1 0 2 -0.2 2.9 -0.8 c 0.7 -0.4 1.2 -1.2 1.2 -2 c 0 -0.9 -0.4 -1.7 -1.2 -2.2 c -1.1 -0.6 -2.3 -1.1 -3.5 -1.3 c -1.9 -0.4 -3.3 -1 -4.3 -1.9 c -1 -0.9 -1.5 -2.1 -1.5 -3.6 c 0 -1 0.3 -2 0.9 -2.9 c 0.6 -0.8 1.4 -1.5 2.3 -1.9 c 1.1 -0.5 2.2 -0.7 3.4 -0.7 c 1.1 0 2.2 0.2 3.2 0.5 c 0.9 0.3 1.7 0.8 2.4 1.5 c 0.4 0.3 0.6 0.7 0.6 1.2 c 0 0.3 -0.1 0.6 -0.4 0.9 c -0.2 0.3 -0.6 0.4 -0.9 0.4 c -0.2 0 -0.5 -0.1 -0.6 -0.2 c -0.6 -0.5 -1.2 -0.9 -2 -1.2 c -0.8 -0.3 -1.6 -0.5 -2.4 -0.5 c -1 -0.1 -2 0.2 -2.9 0.8 c -0.7 0.4 -1.1 1.2 -1.1 2 c 0 0.8 0.4 1.6 1.1 2 c 1 0.6 2.1 1 3.2 1.2 c 1.2 0.2 2.4 0.6 3.5 1.1 c 0.8 0.4 1.6 1 2.1 1.8 c 0.5 0.9 0.8 1.9 0.7 2.9 c 0 1 -0.3 2 -0.9 2.8 c -0.6 0.8 -1.5 1.5 -2.4 1.9 c -1.1 0.5 -2.2 0.7 -3.4 0.7 c -1.2 0 -2.4 -0.2 -3.5 -0.6 z" class="fill-nuxt-lightgreen"/><path d="M 1.9 25.1 h 8.8 c 0.1 -0.3 0.2 -0.7 0.3 -1 l 8.3 -14.6 l -4.3 -7.6 L 1.9 25.1 z M 30.5 25.1 H 34.6 L 23.8 6.2 l -1.9 3.4 l 8.3 14.6 c 0.2 0.3 0.3 0.6 0.4 1 z M 20.6 11.8 l -7.6 13.3 h 15.1 z"/><path fill="#00c58e" d="M 10.9 26.4 C 10.9 26.3 10.9 26.3 10.9 26.2 c -0.1 -0.3 -0.2 -0.7 -0.1 -1.1 H 1.9 L 15 2 l 4.3 7.6 L 20.6 7.4 l -3.8 -6.6 C 16.7 0.6 16.1 -0.4 15 -0.4 c -0.5 0 -1.2 0.2 -1.8 1.2 L -0.1 24.2 c -0.1 0.2 -0.7 1.3 -0.1 2.2 c 0.2 0.4 0.8 0.9 1.9 0.9 H 12.9 c -1.2 0 -1.7 -0.5 -1.9 -0.9 z" class="fill-nuxt-lightgreen"/><path fill="#108775" d="M 36.5 24.2 L 25.6 4.9 c -0.1 -0.2 -0.7 -1.2 -1.8 -1.2 c -0.5 0 -1.2 0.2 -1.8 1.2 L 20.6 7.4 l 1.3 2.2 l 1.9 -3.4 L 34.6 25.1 h -4.1 c 0.1 0.3 0 0.6 -0.1 0.9 C 30.4 26.1 30.3 26.2 30.3 26.2 l 0 0.1 c -0.6 0.9 -1.7 1 -2 1 h 6.4 c 0.2 0 1.4 -0.1 2 -1 c 0.2 -0.4 0.4 -1.1 -0.2 -2.2 z" class="fill-nuxt-green"/><path fill-rule="nonzero" d="M 30.3 26.3 l 0 -0.1 C 30.3 26.2 30.4 26.1 30.4 26.1 c 0.1 -0.3 0.1 -0.6 0.1 -0.9 c -0.1 -0.3 -0.2 -0.7 -0.4 -1 l -8.3 -14.6 L 20.6 7.4 l -1.3 2.2 l -8.3 14.6 c -0.2 0.3 -0.3 0.6 -0.3 1 c -0.1 0.4 0 0.8 0.1 1.1 C 10.9 26.3 10.9 26.3 10.9 26.4 c 0.2 0.4 0.8 0.9 1.9 0.9 h 15.4 c 0.2 0 1.4 -0.1 2 -1 z M 20.6 11.8 l 7.6 13.3 H 13 L 20.6 11.8 z" class="fill-current"/></g></svg>